<svg height="511pt" viewBox="-25 0 511 511.99975" width="511pt" xmlns="http://www.w3.org/2000/svg"><path d="m443.378906 212.929688c4.6875-7.484376 10.765625-22.558594 8.507813-48.679688-1.800781-20.847656-10.40625-33.328125-17.304688-40.128906-4.578125-4.503906-9.035156-7.207032-12.042969-8.703125-2.480468-6.65625-8.964843-22.261719-20.125-37.261719-18.382812-24.707031-41.148437-36.582031-66.148437-34.628906-2.058594-4.683594-5.574219-11.578125-10.835937-18.480469-12.480469-16.386719-28.78125-25.046875-47.136719-25.046875-15.921875 0-29.335938 6.921875-38.792969 20.023438-3.378906 4.679687-6.222656 10.136718-8.542969 16.316406-12.050781-31.976563-35.484375-36.339844-47.324219-36.339844-18.359374 0-34.660156 8.660156-47.140624 25.046875-5.253907 6.898437-8.769532 13.792969-10.832032 18.472656-19.097656-1.527343-36.671875 4.921875-52.335937 19.210938-3.066407 2.800781-3.28125 7.554687-.484375 10.625 2.796875 3.066406 7.554687 3.285156 10.621094.484375 13.734374-12.53125 29.152343-17.492188 45.832031-14.734375 3.6875.609375 7.246093-1.570313 8.386719-5.121094.121093-.390625 12.878906-38.949219 45.953124-38.949219 25.015626 0 39.15625 24.195313 39.8125 68.128906v343.703126c-.003906.390624-.507812 39.210937-21.128906 58.933593-8.328125 7.964844-18.625 11.601563-31.480468 11.121094-28.113282-1.058594-34.207032-11.96875-41.261719-24.597656-4.132813-7.394531-8.816407-15.773438-17.890625-21.769531-7.03125-4.640626-16.214844-7.351563-25.9375-10.222657-23.355469-6.898437-49.824219-14.714843-59.292969-51.363281-5.796875-22.445312-1.480469-40.773438 2.007813-50.453125 6.042968 4.035156 14.3125 9.378906 19.34375 11.894531 3.667968 1.832032 8.253906.300782 10.085937-3.363281 1.859375-3.714844.351563-8.230469-3.359375-10.085937-5.925781-2.960938-18.820312-11.632813-24.226562-15.367188-4.695313-5.714844-13.175782-22.480469-14.636719-49.3125-1.3125-24.074219 7.636719-40.429688 13.324219-48.277344 5.132812 4.335938 13.078124 10.386719 22.074218 14.882813 3.667969 1.832031 8.253906.300781 10.085938-3.363281 1.859375-3.714844.351562-8.230469-3.363282-10.085938-11.597656-5.800781-21.578124-15.007812-23.773437-17.101562-.210937-.234376-.4375-.460938-.691406-.671876-3.84375-3.851562-10.433594-17.484374-8.300781-42.121093 1.46875-17.015625 8.273437-26.648438 14.050781-31.859375 1.792969 7.238281 5.820312 16.734375 14.617187 27.179687 2.636719 3.132813 7.457032 3.546875 10.59375.910157 3.175782-2.675782 3.582032-7.417969.90625-10.59375-12.3125-14.621094-12.535156-26.015626-12.402344-28.59375 1.027344-2.949219 5.289063-14.511719 13.039063-26.988282 2.1875-3.527344 1.105469-8.164062-2.421875-10.351562-3.53125-2.191406-8.164062-1.109375-10.355469 2.421875-7.261719 11.699219-11.710937 22.519531-13.667969 27.757812-8.058593 4.015625-26.5625 16.644531-29.34375 48.824219-2.257812 26.121094 3.820313 41.195312 8.503907 48.675781-7.039063 9.003907-19.558594 29.539063-17.890625 60.171875 1.625 29.851563 10.773437 47.40625 15.796875 54.925782-4.34375 9.707031-12.535157 33.808593-4.554688 64.703124 11.597657 44.898438 45.121094 54.800782 69.59375 62.027344 8.617188 2.542969 16.753907 4.945313 21.90625 8.351563 6.023438 3.976562 9.28125 9.804687 13.050781 16.554687 7.695313 13.769532 17.269532 30.910156 53.824219 32.289063 12.164063.457031 24.359375-2.25 34.59375-9.003907 2.800781-1.847656 5.421875-3.960937 7.847657-6.277343 8.675781-8.300781 14.433593-18.945313 18.25-29.402344 3.820312 10.457031 9.578124 21.101563 18.253906 29.402344 8.597656 8.222656 19.546875 13.332031 31.335937 14.820312 3.679688.464844 7.398438.597657 11.105469.457031 36.554688-1.375 46.128906-18.515624 53.820312-32.285156 3.773438-6.75 7.03125-12.578125 13.054688-16.554687 5.15625-3.40625 13.289062-5.808594 21.90625-8.351563 11.109375-3.28125 23.703125-7 35.414062-14.132812 3.546876-2.160156 4.667969-6.785156 2.507813-10.332032-2.15625-3.546874-6.785156-4.671874-10.332031-2.511718-10.03125 6.109375-21.121094 9.386718-31.847656 12.554687-4.972657 1.46875-9.800782 2.898438-14.273438 4.5625v-26.898437c11.046875-3.253906 19.136719-13.480469 19.136719-25.566406 0-14.699219-11.957031-26.65625-26.65625-26.65625s-26.65625 11.957031-26.65625 26.65625c0 12.085937 8.089843 22.3125 19.136719 25.566406v35.058594c-6.925782 5.695312-10.929688 12.855468-14.515626 19.269531-6.347656 11.363281-11.925781 21.328125-33.457031 23.984375v-39.480469c0-4.152344-3.367187-7.515625-7.519531-7.515625s-7.519531 3.363281-7.519531 7.515625v39.898437c-9.550781-.910156-17.511719-4.5-24.207031-10.890624-20.5-19.5625-21.160157-58.308594-21.164063-58.972657v-17.253906h33.742187c4.152344 0 7.519532-3.367187 7.519532-7.519531s-3.367188-7.519532-7.519532-7.519532h-33.742187v-50.195312h35.574219l29.121094 22.253906c3.257812 2.488282 8.050781 1.84375 10.539062-1.410156 2.519531-3.300781 1.890625-8.019531-1.410156-10.539062l-31.140625-23.796876c-1.3125-1-2.917969-1.542968-4.566407-1.542968h-38.117187v-49.132813h22.378906c3.253907 11.046875 13.480469 19.136719 25.566407 19.136719 14.699218 0 26.65625-11.957031 26.65625-26.65625s-11.957032-26.65625-26.65625-26.65625c-12.085938 0-22.3125 8.089844-25.566407 19.136719h-22.378906v-49.128907h38.117187c1.648438 0 3.253907-.542968 4.566407-1.546874l31.140625-23.796876c3.300781-2.519531 3.929687-7.238281 1.410156-10.539062-2.519531-3.296875-7.238281-3.929688-10.539062-1.40625l-29.121094 22.25h-35.574219v-58.667969h33.742187c4.152344 0 7.519532-3.367187 7.519532-7.519531 0-4.148438-3.367188-7.515625-7.519532-7.515625h-33.742187v-44.117187c.648437-43.941407 14.785156-68.144532 39.808594-68.144532 30.292969 0 43.328125 31.691406 45.597656 37.921875v36.011719c-11.050781 3.253906-19.136719 13.484375-19.136719 25.570312 0 14.699219 11.957032 26.65625 26.652344 26.65625 14.699219 0 26.65625-11.957031 26.65625-26.65625 0-12.085937-8.089844-22.3125-19.136719-25.570312v-30.539062c19.148438-.960938 36.347657 8.574218 51.214844 28.417968 7.136719 9.53125 12.21875 19.53125 15.359375 26.648438h-16.652344c-4.152344 0-7.519531 3.363281-7.519531 7.515625 0 4.152343 3.367187 7.519531 7.519531 7.519531h26.296875c3.925781 1.722656 19.441407 10.183594 21.761719 37.011719 1.855469 21.492187-2.917969 34.605469-6.71875 40.164062h-32.128906c-2.941406-11.523437-13.40625-20.074219-25.832032-20.074219-14.699218 0-26.65625 11.957032-26.65625 26.65625 0 14.699219 11.957032 26.65625 26.65625 26.65625 11.742188 0 21.730469-7.636718 25.273438-18.203124h32.871094c4.445312 5.261718 15.269531 20.488281 15.96875 44.429687h-54.976563c-4.15625 0-7.519531 3.367187-7.519531 7.515625 0 4.152344 3.363281 7.519531 7.519531 7.519531h54.234375c-2.246094 19.953125-8.328125 33.304688-12.570312 39.503907h-51.578125c-4.152344 0-7.515625 3.367187-7.515625 7.519531 0 4.152343 3.363281 7.519531 7.515625 7.519531h50.53125c3.453125 8.039062 10.152343 28.414062 3.488281 54.21875-1.976562 7.65625-4.8125 14.464844-8.429688 20.234375-2.203124 3.519531-1.136718 8.160156 2.382813 10.363281 3.476563 2.175782 8.1875 1.089844 10.363281-2.378906 4.433594-7.078125 7.878906-15.308594 10.246094-24.457031 7.976562-30.898438-.210938-54.996094-4.554688-64.707031 5.023438-7.515626 14.171876-25.074219 15.796876-54.925782 1.667968-30.628906-10.851563-51.167968-17.894532-60.167968zm-100.609375 179.5c0-6.40625 5.210938-11.617188 11.617188-11.617188s11.617187 5.210938 11.617187 11.617188-5.210937 11.621093-11.617187 11.621093-11.617188-5.214843-11.617188-11.621093zm-56.34375-131.359376c6.40625 0 11.621094 5.210938 11.621094 11.617188 0 6.410156-5.214844 11.621094-11.621094 11.621094s-11.617187-5.210938-11.617187-11.621094c0-6.40625 5.210937-11.617188 11.617187-11.617188zm56.601563-146.53125c0 6.40625-5.214844 11.617188-11.621094 11.617188s-11.617188-5.210938-11.617188-11.617188 5.210938-11.621093 11.617188-11.621093 11.621094 5.214843 11.621094 11.621093zm29.199218 109.367188c-6.40625 0-11.617187-5.210938-11.617187-11.617188s5.210937-11.617187 11.617187-11.617187 11.617188 5.210937 11.617188 11.617187-5.210938 11.617188-11.617188 11.617188zm0 0"/><path d="m341.28125 265.171875c-4.152344 0-7.515625 3.367187-7.515625 7.515625 0 4.152344 3.363281 7.519531 7.515625 7.519531h20.007812c4.15625 0 7.519532-3.367187 7.519532-7.519531 0-4.148438-3.363282-7.515625-7.519532-7.515625zm0 0"/><path d="m86.296875 397.664062c-4.105469-.664062-7.957031 2.121094-8.621094 6.222657-.664062 4.097656 2.121094 7.957031 6.222657 8.621093.125.019532 12.835937 2.125 25.863281 8.265626 16.183593 7.628906 24.933593 17.527343 26.015625 29.425781.355468 3.90625 3.632812 6.839843 7.480468 6.839843.226563 0 .457032-.011718.6875-.03125 4.136719-.378906 7.183594-4.035156 6.808594-8.167968-3.71875-40.886719-61.976562-50.773438-64.457031-51.175782zm0 0"/><path d="m180.804688 369.902344c-3.855469-1.542969-8.230469.328125-9.777344 4.179687-.457032 1.132813-10.925782 28.113281 7.933594 57.300781 2.222656 3.441407 6.953124 4.460938 10.394531 2.234376 3.488281-2.253907 4.488281-6.90625 2.234375-10.394532-14.464844-22.390625-6.957032-42.628906-6.59375-43.578125 1.519531-3.84375-.347656-8.199219-4.191406-9.742187zm0 0"/><path d="m182.527344 120.949219c-3.21875 2.625-3.703125 7.359375-1.078125 10.578125.273437.335937 27.082031 34.230468 6.0625 95.398437-1.351563 3.929688.738281 8.207031 4.664062 9.554688 3.878907 1.335937 8.222657-.792969 9.554688-4.667969 23.707031-68.988281-7.296875-108.152344-8.625-109.785156-2.625-3.21875-7.359375-3.703125-10.578125-1.078125zm0 0"/><path d="m215.457031 273.078125c-1.628906-3.820313-6.039062-5.597656-9.863281-3.972656-13.054688 5.550781-24.800781 4.992187-34.914062-1.667969-7.898438-5.199219-12.03125-12.335938-12.132813-12.507812-2.019531-3.613282-6.578125-4.917969-10.203125-2.910157-3.632812 2.007813-4.949219 6.585938-2.9375 10.21875.226562.40625 5.636719 10.050781 16.390625 17.351563 6.363281 4.316406 15.375 8.351562 26.835937 8.351562 6.773438 0 14.40625-1.410156 22.847657-5 3.820312-1.628906 5.601562-6.042968 3.976562-9.863281zm0 0"/><path d="m56.074219 277.402344c-1.664063 3.800781.066406 8.234375 3.863281 9.902344.160156.070312 16.003906 7.117187 29.890625 20.394531 4.382813 4.191406 8.074219 8.503906 11.070313 12.921875.125.207031.257812.410156.402343.609375 8.734375 13.179687 11.320313 27.324219 7.671875 42.230469-.988281 4.03125 1.484375 8.101562 5.515625 9.089843 3.980469.972657 8.117188-1.535156 9.089844-5.515625 2.839844-11.609375 2.683594-22.980468-.367187-33.875 8.039062 2.78125 15.40625 3.804688 21.902343 3.804688 17.480469 0 28.621094-7.414063 29.375-7.933594 3.425781-2.347656 4.320313-7.046875 1.972657-10.46875-2.347657-3.425781-7-4.3125-10.425782-1.964844-.921875.609375-22.625 14.476563-53.332031-5.316406-3.554687-5.09375-7.820313-10.027344-12.808594-14.757812-15.808593-14.992188-33.199219-22.675782-33.933593-22.996094-3.796876-1.660156-8.222657.074218-9.886719 3.875zm0 0"/><path d="m75.164062 201.160156c-2.40625 3.375-1.617187 8.066406 1.746094 10.480469.296875.210937 29.511719 21.585937 29.910156 57.949219.046876 4.121094 3.402344 7.433594 7.515626 7.433594h.085937c4.152344-.042969 7.480469-3.449219 7.433594-7.597657-.484375-44.195312-34.769531-69.007812-36.230469-70.039062-3.378906-2.398438-8.054688-1.601563-10.460938 1.773437zm0 0"/><path d="m117.636719 89.113281c-3.472657-2.277343-8.132813-1.304687-10.410157 2.167969-1.113281 1.699219-27.117187 42.144531-12.195312 85.398438 1.335938 3.871093 5.683594 5.988281 9.5625 4.652343 3.921875-1.351562 6.007812-5.632812 4.652344-9.558593-2.5625-7.429688-3.621094-14.835938-3.707032-21.925782 18.085938 33.6875 50.632813 45.179688 52.34375 45.761719 3.871094 1.320313 8.195313-.8125 9.523438-4.675781 1.347656-3.917969-.738281-8.191406-4.65625-9.550782-1.769531-.613281-42.894531-15.390624-52.167969-61.710937 4.054688-12.039063 9.082031-19.941406 9.226563-20.160156 2.269531-3.472657 1.296875-8.125-2.171875-10.398438zm0 0"/><path d="m150.890625 88.046875c-4.0625.867187-6.65625 4.859375-5.789063 8.921875.753907 3.53125 3.871094 5.953125 7.34375 5.953125.519532 0 1.046876-.054687 1.574219-.167969 27.300781-5.8125 39.703125-21.6875 45.296875-33.980468 6.03125-13.261719 5.523438-25.234376 5.496094-25.738282-.203125-4.132812-3.691406-7.304687-7.839844-7.121094-4.132812.179688-7.34375 3.6875-7.179687 7.824219.054687 1.457031.941406 35.828125-38.902344 44.308594zm0 0"/></svg>